<?xml version="1.0" standalone="no"?>
<!DOCTYPE svg PUBLIC "-//W3C//DTD SVG 20010904//EN"
 "http://www.w3.org/TR/2001/REC-SVG-20010904/DTD/svg10.dtd">
<svg version="1.0" xmlns="http://www.w3.org/2000/svg"
 width="200.000000pt" height="200.000000pt" viewBox="0 0 200.000000 200.000000"
 preserveAspectRatio="xMidYMid meet">
<metadata>
Created by potrace 1.11, written by Peter Selinger 2001-2013
</metadata>
<g transform="translate(0.000000,200.000000) scale(0.100000,-0.100000)"
fill="#000000" stroke="none">
<path d="M814 1589 c-8 -14 11 -33 25 -25 6 4 11 11 11 16 0 13 -29 20 -36 9z"/>
<path d="M866 1585 c-3 -9 1 -18 10 -22 19 -7 28 2 21 22 -8 19 -23 19 -31 0z"/>
<path d="M937 1593 c-4 -3 -7 -12 -7 -20 0 -15 26 -18 34 -4 7 11 -18 33 -27
24z"/>
<path d="M1002 1584 c1 -9 9 -19 16 -22 9 -3 13 2 10 14 -1 9 -9 19 -16 22 -9
3 -13 -2 -10 -14z"/>
<path d="M1064 1589 c-8 -14 11 -33 25 -25 11 7 4 36 -9 36 -5 0 -12 -5 -16
-11z"/>
<path d="M823 1533 c-18 -6 -16 -33 1 -33 19 0 31 19 20 30 -5 4 -15 5 -21 3z"/>
<path d="M867 1524 c-9 -10 2 -24 19 -24 8 0 14 7 14 15 0 15 -21 21 -33 9z"/>
<path d="M930 1515 c0 -10 7 -15 18 -13 21 4 19 22 -2 26 -10 2 -16 -3 -16
-13z"/>
<path d="M1000 1515 c0 -8 7 -15 15 -15 8 0 15 7 15 15 0 8 -7 15 -15 15 -8 0
-15 -7 -15 -15z"/>
<path d="M1060 1514 c0 -9 7 -14 17 -12 25 5 28 28 4 28 -12 0 -21 -6 -21 -16z"/>
<path d="M815 1460 c-3 -5 -4 -14 0 -20 8 -13 35 -1 35 16 0 16 -26 19 -35 4z"/>
<path d="M1064 1459 c-3 -6 -2 -15 2 -19 12 -12 38 5 30 19 -9 14 -23 14 -32
0z"/>
<path d="M814 1399 c-10 -17 13 -36 27 -22 12 12 4 33 -11 33 -5 0 -12 -5 -16
-11z"/>
<path d="M1064 1399 c-8 -14 11 -33 25 -25 11 7 4 36 -9 36 -5 0 -12 -5 -16
-11z"/>
<path d="M810 1324 c0 -9 7 -14 17 -12 25 5 28 28 4 28 -12 0 -21 -6 -21 -16z"/>
<path d="M1060 1325 c0 -10 7 -15 18 -13 21 4 19 22 -2 26 -10 2 -16 -3 -16
-13z"/>
<path d="M742 1258 c-17 -17 -15 -46 6 -56 36 -19 75 24 46 52 -19 19 -36 20
-52 4z"/>
<path d="M993 1263 c-19 -7 -16 -51 4 -62 25 -13 53 4 53 33 0 29 -25 42 -57
29z"/>
<path d="M1120 1002 l0 -139 50 -1 c38 -1 52 3 58 16 11 21 15 115 7 153 -8
36 -40 56 -61 38 -12 -10 -14 -5 -14 30 0 34 -3 41 -20 41 -19 0 -20 -7 -20
-138z m78 -41 c-2 -51 -6 -66 -18 -66 -11 0 -16 14 -18 54 -2 30 0 66 3 79 5
20 8 22 21 11 11 -9 14 -29 12 -78z"/>
<path d="M401 1121 c-10 -7 -7 -25 13 -90 14 -45 26 -102 26 -127 0 -37 3 -44
20 -44 17 0 20 7 20 42 0 23 12 80 26 126 14 46 23 87 19 90 -19 19 -33 5 -45
-44 -7 -30 -16 -54 -20 -54 -3 0 -12 22 -19 50 -14 55 -20 63 -40 51z"/>
<path d="M870 1101 c0 -18 -6 -31 -17 -36 -16 -6 -16 -8 -3 -18 11 -9 15 -31
14 -82 -1 -86 8 -107 43 -103 29 3 45 28 19 28 -19 0 -18 0 -22 65 -3 62 3 96
17 92 21 -4 20 20 -1 26 -12 3 -20 11 -19 19 3 27 -1 38 -16 38 -10 0 -15 -10
-15 -29z"/>
<path d="M590 1072 c-29 -9 -40 -36 -40 -102 0 -82 18 -113 63 -108 27 3 34 9
45 43 15 43 10 128 -8 150 -13 16 -40 23 -60 17z m36 -107 c-1 -35 -4 -67 -8
-70 -16 -17 -28 11 -28 65 0 71 7 95 25 80 8 -7 12 -33 11 -75z"/>
<path d="M718 1072 c-15 -3 -18 -15 -18 -85 0 -110 6 -127 39 -127 15 0 32 5
39 12 9 9 12 9 12 0 0 -7 7 -12 15 -12 12 0 15 18 15 105 0 63 -4 105 -10 105
-5 0 -13 0 -17 0 -5 0 -10 -39 -13 -87 -4 -69 -8 -88 -20 -88 -12 0 -16 19
-20 90 -4 79 -7 90 -22 87z"/>
<path d="M973 1072 c-12 -8 -12 -179 1 -200 9 -15 48 -16 64 0 9 9 12 9 12 0
0 -7 7 -12 15 -12 15 0 19 38 15 155 -2 58 -5 66 -25 58 -12 -4 -15 -25 -15
-94 0 -72 -3 -89 -15 -89 -18 0 -17 -4 -19 92 -2 78 -11 103 -33 90z"/>
<path d="M1310 1069 c-13 -6 -28 -15 -32 -22 -14 -23 -9 -141 8 -165 28 -40
101 -21 92 24 -5 26 -25 28 -31 3 -8 -31 -31 -18 -35 19 -3 30 -2 32 31 32 39
0 50 20 38 67 -10 36 -39 54 -71 42z m37 -59 c2 -14 -3 -20 -17 -20 -14 0 -20
7 -20 23 0 45 30 42 37 -3z"/>
<path d="M689 833 c0 -10 -1 -72 -2 -138 -1 -113 1 -120 20 -123 19 -3 20 2
20 138 0 130 -1 140 -18 140 -11 0 -19 -7 -20 -17z"/>
<path d="M545 834 c-8 -3 -12 -172 -6 -251 1 -7 10 -13 21 -13 17 0 20 7 20
40 0 33 3 40 19 40 52 0 82 113 44 158 -17 19 -75 35 -98 26z m67 -46 c5 -46
4 -75 -4 -90 -17 -34 -28 -18 -28 42 0 47 3 60 15 60 8 0 16 -6 17 -12z"/>
<path d="M792 779 c-26 -10 -37 -32 -27 -56 6 -16 9 -15 27 10 22 31 38 27 38
-8 0 -17 -9 -29 -29 -39 -35 -18 -52 -61 -38 -93 8 -18 17 -22 58 -21 l49 1 0
92 c0 73 -3 95 -16 106 -20 17 -33 18 -62 8z m38 -144 c0 -24 -5 -35 -15 -35
-30 0 -17 68 13 70 1 0 2 -16 2 -35z"/>
<path d="M897 784 c-3 -3 6 -50 19 -105 29 -122 29 -136 4 -144 -23 -7 -26
-23 -6 -31 30 -12 54 15 67 73 6 32 19 91 29 131 l17 72 -24 0 c-18 0 -23 -6
-24 -25 -1 -14 -3 -29 -4 -35 -1 -5 -3 -21 -4 -35 -2 -44 -18 -27 -26 28 -5
28 -8 55 -7 58 2 8 -35 19 -41 13z"/>
<path d="M1082 779 c-12 -5 -26 -19 -31 -32 -12 -32 -8 -127 7 -154 16 -28 62
-31 85 -5 23 25 21 42 -3 42 -11 0 -20 -7 -20 -15 0 -18 -30 -20 -31 -2 0 6
-2 22 -5 35 -3 20 0 22 34 22 38 0 39 1 40 36 2 63 -27 91 -76 73z m38 -59 c0
-28 -2 -30 -20 -20 -30 16 -25 50 7 50 8 0 13 -12 13 -30z"/>
<path d="M1241 781 c-7 -5 -22 -6 -32 -4 -18 5 -19 -2 -19 -101 0 -99 1 -106
20 -106 19 0 20 7 20 90 0 75 3 90 16 90 8 0 13 -4 10 -8 -8 -13 11 -35 23
-28 17 11 13 54 -7 65 -10 5 -24 6 -31 2z"/>
</g>
</svg>
